<?xml version="1.0" encoding="utf-8"?>
<!-- Generator: Adobe Illustrator 17.1.0, SVG Export Plug-In . SVG Version: 6.00 Build 0)  -->
<!DOCTYPE svg PUBLIC "-//W3C//DTD SVG 1.1//EN" "http://www.w3.org/Graphics/SVG/1.1/DTD/svg11.dtd">
<svg version="1.1" id="Layer_1" xmlns="http://www.w3.org/2000/svg" xmlns:xlink="http://www.w3.org/1999/xlink" x="0px" y="0px"
	 viewBox="0 0 470 60" enable-background="new 0 0 470 60" xml:space="preserve">
<g>
	
		<line fill="none" stroke="#231F20" stroke-linecap="round" stroke-linejoin="round" stroke-miterlimit="10" x1="155.9" y1="4.9" x2="155.9" y2="54.1"/>
	<g>
		<path fill="#231F20" d="M16,22v2.2H7.5V9.3H16v2.2h-5.8v3.9H15v2.2h-4.8V22H16z"/>
		<path fill="#231F20" d="M17.5,23.2l0.9-1.8c1.2,0.7,2.4,1,3.4,1c1.1,0,1.6-0.4,1.6-1.3c0-0.4-0.2-0.7-0.7-1
			c-0.2-0.1-0.6-0.2-1.3-0.4c-1.6-0.5-2.7-1.1-3.1-1.8C18.2,17.6,18,17,18,16.4c0-1.3,0.7-2.3,2-2.9c0.7-0.3,1.4-0.4,2.3-0.4
			c1.1,0,2.3,0.3,3.5,1L25,15.8c-1-0.6-1.9-0.8-2.7-0.8c-1.1,0-1.6,0.4-1.6,1.2c0,0.4,0.2,0.7,0.7,0.9c0.2,0.1,0.8,0.3,1.8,0.6
			c0.7,0.2,1.1,0.4,1.5,0.6c1.1,0.6,1.6,1.4,1.6,2.6c0,1.4-0.7,2.4-2.1,3c-0.7,0.3-1.4,0.4-2.3,0.4C20.5,24.4,19,24,17.5,23.2z"/>
		<path fill="#231F20" d="M34.6,22l0.7,1.7c-0.9,0.5-1.9,0.7-2.9,0.7c-1.4,0-2.2-0.5-2.6-1.4c-0.2-0.5-0.3-1.3-0.3-2.2v-5.6h-2v-2h2
			V9.3h2.6v3.9h2.6v2h-2.6v5.1c0,0.7,0,1.1,0.1,1.3c0.1,0.5,0.5,0.7,1,0.7C33.6,22.4,34,22.3,34.6,22z"/>
		<path fill="#231F20" d="M44.4,21.1l1,1.4c-1.3,1.2-2.8,1.9-4.4,1.9c-1.5,0-2.8-0.6-3.7-1.7c-0.9-1.1-1.3-2.4-1.3-4
			c0-1.5,0.4-2.8,1.2-3.9c0.9-1.2,2.1-1.8,3.6-1.8c1.9,0,3.3,0.9,4.1,2.6c0.5,0.9,0.7,2.2,0.7,3.7h-6.9c0.1,2.1,0.9,3.1,2.5,3.1
			C42.3,22.5,43.3,22,44.4,21.1z M38.9,17.5h4c-0.2-1.7-0.8-2.5-2-2.5C39.7,15,39,15.8,38.9,17.5z"/>
		<path fill="#231F20" d="M54.2,13.3h2.5v0.9c0.7-0.8,1.6-1.1,2.7-1.1c1.4,0,2.5,0.5,3.2,1.6c0.6,0.9,1,2.1,1,3.6
			c0,2.6-0.7,4.4-2,5.4c-0.6,0.5-1.4,0.7-2.2,0.7c-1,0-1.9-0.3-2.6-0.9v4.8h-2.6V13.3z M56.9,16.1v5.4c0.6,0.6,1.3,0.8,1.9,0.8
			c1.4,0,2.2-1.3,2.2-4c0-2.1-0.7-3.2-2-3.2C58.2,15.2,57.5,15.5,56.9,16.1z"/>
		<path fill="#231F20" d="M68.9,16.5v7.7h-2.6V13.3h2.6v1.1c0.9-0.9,1.7-1.3,2.4-1.3c0.5,0,1,0.2,1.6,0.6L72,15.8
			c-0.4-0.2-0.8-0.3-1.2-0.3C70.1,15.6,69.5,15.9,68.9,16.5z"/>
		<path fill="#231F20" d="M78.1,13.1c2,0,3.4,0.9,4.2,2.8c0.4,0.9,0.6,1.8,0.6,2.9c0,2.2-0.8,3.9-2.3,4.9c-0.7,0.5-1.6,0.7-2.5,0.7
			c-2,0-3.4-0.9-4.2-2.8c-0.4-0.9-0.6-1.8-0.6-2.9c0-2.2,0.8-3.9,2.3-4.9C76.3,13.3,77.1,13.1,78.1,13.1z M78.1,15
			c-1.4,0-2.1,1.2-2.1,3.7s0.7,3.7,2.1,3.7c1.4,0,2.1-1.2,2.1-3.7S79.4,15,78.1,15z"/>
		<path fill="#231F20" d="M85.5,13.3h2.6v11c0,1.8-0.5,3.1-1.5,3.8c-0.5,0.3-1.1,0.5-1.8,0.5c-0.8,0-1.6-0.2-2.5-0.7l0.6-1.8
			c0.5,0.2,0.9,0.3,1.2,0.3c1,0,1.4-0.8,1.4-2.5V13.3z M88.1,11.4h-2.6V8.4h2.6V11.4z"/>
		<path fill="#231F20" d="M99.1,21.1l1,1.4c-1.3,1.2-2.8,1.9-4.4,1.9c-1.5,0-2.8-0.6-3.7-1.7c-0.9-1.1-1.3-2.4-1.3-4
			c0-1.5,0.4-2.8,1.2-3.9c0.9-1.2,2.1-1.8,3.6-1.8c1.9,0,3.3,0.9,4.1,2.6c0.5,0.9,0.7,2.2,0.7,3.7h-6.9c0.1,2.1,0.9,3.1,2.5,3.1
			C96.9,22.5,98,22,99.1,21.1z M93.5,17.5h4c-0.2-1.7-0.8-2.5-2-2.5C94.4,15,93.7,15.8,93.5,17.5z"/>
		<path fill="#231F20" d="M108.8,22l0.7,1.7c-0.9,0.5-1.9,0.7-2.9,0.7c-1.4,0-2.2-0.5-2.6-1.4c-0.2-0.5-0.3-1.3-0.3-2.2v-5.6h-2v-2
			h2V9.3h2.6v3.9h2.6v2h-2.6v5.1c0,0.7,0,1.1,0.1,1.3c0.1,0.5,0.5,0.7,1,0.7C107.7,22.4,108.2,22.3,108.8,22z"/>
		<path fill="#231F20" d="M115.1,13.1c2,0,3.4,0.9,4.2,2.8c0.4,0.9,0.6,1.8,0.6,2.9c0,2.2-0.8,3.9-2.3,4.9c-0.7,0.5-1.6,0.7-2.5,0.7
			c-2,0-3.4-0.9-4.2-2.8c-0.4-0.9-0.6-1.8-0.6-2.9c0-2.2,0.8-3.9,2.3-4.9C113.3,13.3,114.1,13.1,115.1,13.1z M115.1,15
			c-1.4,0-2.1,1.2-2.1,3.7s0.7,3.7,2.1,3.7c1.4,0,2.1-1.2,2.1-3.7S116.4,15,115.1,15z"/>
		<path fill="#231F20" d="M136.1,21.1l1,1.4c-1.3,1.2-2.8,1.9-4.4,1.9c-1.5,0-2.8-0.6-3.7-1.7c-0.9-1.1-1.3-2.4-1.3-4
			c0-1.5,0.4-2.8,1.2-3.9c0.9-1.2,2.1-1.8,3.6-1.8c1.9,0,3.3,0.9,4.1,2.6c0.5,0.9,0.7,2.2,0.7,3.7h-6.9c0.1,2.1,0.9,3.1,2.5,3.1
			C133.9,22.5,135,22,136.1,21.1z M130.5,17.5h4c-0.2-1.7-0.8-2.5-2-2.5C131.3,15,130.7,15.8,130.5,17.5z M133.6,11.4h-1.9l1.4-3.1
			h2.9L133.6,11.4z"/>
		<path fill="#231F20" d="M7,46.2v-8.5h2.6v7.5c0,0.9,0.5,1.4,1.4,1.4c0.7,0,1.5-0.3,2.3-0.9v-7.9h2.6v10.9h-2.6v-0.9
			c-1.2,0.8-2.4,1.1-3.5,1.1c-1.2,0-2-0.4-2.5-1.2C7.1,47.2,7,46.8,7,46.2z"/>
		<path fill="#231F20" d="M28.2,40.7v8h-2.6v-7.5c0-0.9-0.5-1.4-1.4-1.4c-0.7,0-1.5,0.3-2.3,0.9v8h-2.6V37.7h2.6v0.9
			c1.2-0.8,2.3-1.1,3.5-1.1c1.2,0,2.1,0.4,2.5,1.3c1.2-0.9,2.5-1.3,3.8-1.3c1.2,0,2,0.4,2.5,1.2c0.2,0.4,0.3,0.9,0.3,1.4v8.5h-2.6
			v-7.5c0-0.9-0.5-1.4-1.4-1.4C29.8,39.8,29,40.1,28.2,40.7z"/>
		<path fill="#231F20" d="M39.1,40l-0.9-1.8c1.1-0.5,2.3-0.8,3.5-0.8c1.8,0,3,0.6,3.6,1.8c0.3,0.7,0.5,1.6,0.5,2.8v6.6h-2.5v-0.8
			c-0.7,0.7-1.5,1-2.5,1c-1.1,0-2.1-0.3-2.7-1c-0.7-0.7-1-1.5-1-2.7c0-1.6,0.8-2.6,2.5-3.1c0.8-0.2,1.6-0.3,2.6-0.3
			c0.4,0,0.8,0,1.1,0c0-1.1-0.2-1.8-0.7-2.1c-0.3-0.1-0.6-0.2-1.1-0.2C40.6,39.5,39.8,39.7,39.1,40z M43.2,45.8v-2.2
			c-0.2,0-0.5-0.1-0.8-0.1c-2,0-3.1,0.6-3.1,1.9c0,0.5,0.2,0.9,0.6,1.2c0.3,0.2,0.8,0.4,1.3,0.4C42.1,46.9,42.8,46.5,43.2,45.8z"/>
		<path fill="#231F20" d="M57.6,35.9h-2.6v-2.9h2.6V35.9z M57.6,37.7v10.9h-2.6V37.7H57.6z"/>
		<path fill="#231F20" d="M69.8,40.2v8.5h-2.6v-7.5c0-0.9-0.5-1.4-1.4-1.4c-0.7,0-1.5,0.3-2.3,0.9v8h-2.6V37.7h2.6v0.9
			c1.2-0.8,2.3-1.1,3.5-1.1c1.2,0,2,0.4,2.5,1.2C69.7,39.1,69.8,39.6,69.8,40.2z"/>
		<path fill="#231F20" d="M75.7,35.9h-2.6v-2.9h2.6V35.9z M75.7,37.7v10.9h-2.6V37.7H75.7z"/>
		<path fill="#231F20" d="M86.1,45.9l1,1.4c-1.2,1.1-2.4,1.6-3.8,1.6c-1.9,0-3.4-0.8-4.3-2.5c-0.5-0.8-0.7-1.9-0.7-3.2
			c0-1.5,0.4-2.8,1.3-3.9c0.9-1.2,2.1-1.8,3.6-1.8c1.3,0,2.6,0.5,3.8,1.5l-1,1.5c-1-0.7-1.9-1.1-2.8-1.1c-0.8,0-1.4,0.4-1.8,1.3
			c-0.3,0.6-0.4,1.4-0.4,2.4c0,2.5,0.8,3.7,2.4,3.7C84.3,46.9,85.1,46.6,86.1,45.9z"/>
		<path fill="#231F20" d="M91.4,35.9h-2.6v-2.9h2.6V35.9z M91.4,37.7v10.9h-2.6V37.7H91.4z"/>
		<path fill="#231F20" d="M96.1,40l-0.9-1.8c1.1-0.5,2.3-0.8,3.5-0.8c1.8,0,3,0.6,3.6,1.8c0.3,0.7,0.5,1.6,0.5,2.8v6.6h-2.5v-0.8
			c-0.7,0.7-1.5,1-2.5,1c-1.1,0-2.1-0.3-2.7-1c-0.7-0.7-1-1.5-1-2.7c0-1.6,0.8-2.6,2.5-3.1c0.8-0.2,1.6-0.3,2.6-0.3
			c0.4,0,0.8,0,1.1,0c0-1.1-0.2-1.8-0.7-2.1c-0.3-0.1-0.6-0.2-1.1-0.2C97.5,39.5,96.8,39.7,96.1,40z M100.1,45.8v-2.2
			c-0.2,0-0.5-0.1-0.8-0.1c-2,0-3.1,0.6-3.1,1.9c0,0.5,0.2,0.9,0.6,1.2c0.3,0.2,0.8,0.4,1.3,0.4C99.1,46.9,99.7,46.5,100.1,45.8z"/>
		<path fill="#231F20" d="M111.8,46.5l0.7,1.7c-0.9,0.5-1.9,0.7-2.9,0.7c-1.4,0-2.2-0.5-2.6-1.4c-0.2-0.5-0.3-1.3-0.3-2.2v-5.6h-2
			v-2h2v-3.9h2.6v3.9h2.6v2h-2.6v5.1c0,0.7,0,1.1,0.1,1.3c0.1,0.5,0.5,0.7,1,0.7C110.8,46.8,111.3,46.7,111.8,46.5z"/>
		<path fill="#231F20" d="M116.6,35.9H114v-2.9h2.6V35.9z M116.6,37.7v10.9H114V37.7H116.6z"/>
		<path fill="#231F20" d="M122.8,48.6l-4.3-10.9h2.7l2.5,7.1l2.6-7.1h2.5l-4.3,10.9H122.8z"/>
		<path fill="#231F20" d="M131.7,40l-0.9-1.8c1.1-0.5,2.3-0.8,3.5-0.8c1.8,0,3,0.6,3.6,1.8c0.3,0.7,0.5,1.6,0.5,2.8v6.6h-2.5v-0.8
			c-0.7,0.7-1.5,1-2.5,1c-1.1,0-2.1-0.3-2.7-1c-0.7-0.7-1-1.5-1-2.7c0-1.6,0.8-2.6,2.5-3.1c0.8-0.2,1.6-0.3,2.6-0.3
			c0.4,0,0.8,0,1.1,0c0-1.1-0.2-1.8-0.7-2.1c-0.3-0.1-0.6-0.2-1.1-0.2C133.2,39.5,132.4,39.7,131.7,40z M135.8,45.8v-2.2
			c-0.2,0-0.5-0.1-0.8-0.1c-2,0-3.1,0.6-3.1,1.9c0,0.5,0.2,0.9,0.6,1.2c0.3,0.2,0.8,0.4,1.3,0.4C134.7,46.9,135.4,46.5,135.8,45.8z"
			/>
	</g>
	<g>
		<g>
			<g>
				<path fill="#231F20" d="M250,50.5h-4.5l0.1-2.3c-0.6,1-1.4,1.8-2.3,2.2c-0.9,0.5-2,0.7-3.2,0.7c-2.1,0-3.8-0.8-5.1-2.4
					c-1.3-1.6-2-3.7-2-6.3c0-2.7,0.6-4.8,1.9-6.3c1.3-1.5,3.1-2.3,5.3-2.3c1.2,0,2.2,0.3,3.1,0.8c0.9,0.5,1.7,1.3,2.3,2.4v-2.6h4.4
					V50.5z M245.7,42.5c0-1.4-0.4-2.6-1.1-3.4c-0.7-0.8-1.7-1.3-2.9-1.3c-1.3,0-2.3,0.4-3,1.2c-0.7,0.8-1.1,2-1.1,3.4
					c0,1.5,0.4,2.6,1.1,3.4c0.7,0.8,1.7,1.2,3,1.2c1.3,0,2.3-0.4,3-1.2C245.4,45,245.7,43.9,245.7,42.5z"/>
				<path fill="#231F20" d="M266.2,50c-0.6,0.4-1.3,0.7-2,0.8c-0.7,0.2-1.5,0.3-2.3,0.3c-2.5,0-4.6-0.8-6.2-2.4
					c-1.6-1.6-2.4-3.7-2.4-6.3c0-2.5,0.8-4.6,2.4-6.2c1.6-1.6,3.7-2.4,6.2-2.4c0.9,0,1.6,0.1,2.3,0.2c0.7,0.2,1.3,0.4,1.9,0.8l0,4.7
					c-0.5-0.5-1.1-0.9-1.7-1.2c-0.6-0.3-1.3-0.4-2-0.4c-1.3,0-2.4,0.4-3.1,1.2c-0.8,0.8-1.2,1.9-1.2,3.2c0,1.4,0.4,2.4,1.2,3.2
					c0.8,0.8,1.9,1.2,3.2,1.2c0.8,0,1.4-0.1,2-0.4s1.1-0.7,1.6-1.3L266.2,50z"/>
				<path fill="#231F20" d="M285.4,43.6h-12.1c0.2,1.2,0.6,2,1.3,2.6c0.7,0.6,1.5,0.9,2.7,0.9c0.9,0,1.6-0.2,2.2-0.5
					c0.6-0.3,1.1-0.8,1.5-1.5l3.8,1.9c-0.9,1.4-1.9,2.5-3.2,3.1c-1.2,0.7-2.7,1-4.4,1c-2.6,0-4.7-0.8-6.2-2.3
					c-1.5-1.5-2.3-3.6-2.3-6.2c0-2.5,0.8-4.6,2.4-6.2c1.6-1.6,3.6-2.4,6.1-2.4c2.6,0,4.6,0.8,6.1,2.3c1.5,1.5,2.2,3.6,2.2,6.2
					c0,0.1,0,0.3,0,0.5C285.4,43.1,285.4,43.3,285.4,43.6z M280.7,40.8c-0.1-1-0.5-1.8-1.1-2.3s-1.4-0.8-2.5-0.8
					c-1,0-1.9,0.3-2.5,0.8c-0.6,0.5-1,1.3-1.2,2.3H280.7z"/>
				<path fill="#231F20" d="M287.3,47.7l3.6-1.8c0.1,0.6,0.4,1.1,1,1.5c0.5,0.4,1.2,0.5,1.9,0.5c0.8,0,1.4-0.1,1.8-0.4
					c0.4-0.3,0.7-0.7,0.7-1.2c0-0.8-0.8-1.4-2.3-1.9c-0.5-0.2-0.9-0.3-1.1-0.4c-1.9-0.7-3.2-1.4-3.9-2.1c-0.7-0.7-1.1-1.6-1.1-2.7
					c0-1.6,0.6-2.8,1.8-3.8c1.2-1,2.9-1.5,4.9-1.5c1.4,0,2.7,0.3,3.7,0.9c1.1,0.6,1.8,1.4,2.3,2.5l-3.4,1.7c-0.2-0.6-0.5-1.1-1-1.4
					c-0.5-0.3-1-0.5-1.7-0.5c-0.7,0-1.2,0.1-1.7,0.4c-0.4,0.3-0.6,0.7-0.6,1.1c0,0.8,1.1,1.5,3.2,2.2c0.3,0.1,0.4,0.1,0.6,0.2
					c1.8,0.6,3,1.3,3.7,2c0.7,0.8,1.1,1.7,1.1,2.9c0,1.6-0.6,2.9-1.8,3.8c-1.2,0.9-2.9,1.4-5,1.4c-1.7,0-3.1-0.3-4.2-0.9
					C288.5,49.6,287.7,48.8,287.3,47.7z"/>
				<path fill="#231F20" d="M302.6,47.7l3.6-1.8c0.1,0.6,0.4,1.1,1,1.5c0.5,0.4,1.2,0.5,1.9,0.5c0.8,0,1.4-0.1,1.8-0.4
					s0.7-0.7,0.7-1.2c0-0.8-0.8-1.4-2.3-1.9c-0.5-0.2-0.9-0.3-1.1-0.4c-1.9-0.7-3.2-1.4-3.9-2.1c-0.7-0.7-1.1-1.6-1.1-2.7
					c0-1.6,0.6-2.8,1.8-3.8c1.2-1,2.9-1.5,4.9-1.5c1.4,0,2.7,0.3,3.7,0.9c1.1,0.6,1.8,1.4,2.3,2.5l-3.4,1.7c-0.2-0.6-0.5-1.1-1-1.4
					c-0.5-0.3-1-0.5-1.7-0.5c-0.7,0-1.2,0.1-1.7,0.4c-0.4,0.3-0.6,0.7-0.6,1.1c0,0.8,1.1,1.5,3.2,2.2c0.3,0.1,0.4,0.1,0.6,0.2
					c1.8,0.6,3,1.3,3.7,2c0.7,0.8,1.1,1.7,1.1,2.9c0,1.6-0.6,2.9-1.8,3.8c-1.2,0.9-2.9,1.4-5,1.4c-1.7,0-3.1-0.3-4.2-0.9
					C303.8,49.6,303,48.8,302.6,47.7z"/>
				<path fill="#231F20" d="M319.2,27.9c0-0.7,0.3-1.4,0.8-1.9c0.5-0.5,1.2-0.8,1.9-0.8c0.8,0,1.4,0.3,1.9,0.8
					c0.5,0.5,0.8,1.2,0.8,1.9s-0.3,1.4-0.8,1.9c-0.5,0.5-1.2,0.8-1.9,0.8c-0.7,0-1.4-0.3-1.9-0.8C319.5,29.2,319.2,28.6,319.2,27.9z
					 M319.6,50.5v-16h4.6v16H319.6z"/>
				<path fill="#231F20" d="M329,50.5V25.2h4.5v9.1c0,0.5,0,1-0.1,1.5c0,0.5-0.1,1-0.2,1.4c0.8-1.2,1.6-2,2.5-2.5
					c0.9-0.5,1.9-0.8,3.1-0.8c2.3,0,4.1,0.8,5.4,2.3c1.3,1.5,1.9,3.6,1.9,6.3c0,2.6-0.6,4.7-1.9,6.3c-1.3,1.6-3,2.4-5.1,2.4
					c-1.3,0-2.4-0.2-3.2-0.7c-0.9-0.5-1.6-1.2-2.3-2.2l0,2.3H329z M333.2,42.5c0,1.5,0.4,2.6,1.1,3.4c0.7,0.8,1.7,1.2,3,1.2
					c1.3,0,2.3-0.4,3-1.2c0.7-0.8,1.1-1.9,1.1-3.4c0-1.4-0.4-2.6-1.1-3.4c-0.7-0.8-1.7-1.2-3-1.2c-1.2,0-2.2,0.4-2.9,1.3
					C333.6,39.9,333.2,41,333.2,42.5z"/>
				<path fill="#231F20" d="M349.4,27.9c0-0.7,0.3-1.4,0.8-1.9c0.5-0.5,1.2-0.8,1.9-0.8c0.8,0,1.4,0.3,1.9,0.8
					c0.5,0.5,0.8,1.2,0.8,1.9s-0.3,1.4-0.8,1.9c-0.5,0.5-1.2,0.8-1.9,0.8c-0.7,0-1.4-0.3-1.9-0.8C349.7,29.2,349.4,28.6,349.4,27.9z
					 M349.8,50.5v-16h4.6v16H349.8z"/>
				<path fill="#231F20" d="M359.4,50.5V25.2h4.6v25.3H359.4z"/>
				<path fill="#231F20" d="M368.5,27.9c0-0.7,0.3-1.4,0.8-1.9c0.5-0.5,1.2-0.8,1.9-0.8c0.8,0,1.4,0.3,1.9,0.8
					c0.5,0.5,0.8,1.2,0.8,1.9s-0.3,1.4-0.8,1.9c-0.5,0.5-1.2,0.8-1.9,0.8c-0.7,0-1.4-0.3-1.9-0.8C368.8,29.2,368.5,28.6,368.5,27.9z
					 M368.9,50.5v-16h4.6v16H368.9z"/>
				<path fill="#231F20" d="M394.4,50.5h-4.5l0.1-2.3c-0.6,1-1.4,1.8-2.3,2.2c-0.9,0.5-2,0.7-3.2,0.7c-2.1,0-3.8-0.8-5.1-2.4
					c-1.3-1.6-2-3.7-2-6.3c0-2.7,0.6-4.8,1.9-6.3c1.3-1.5,3.1-2.3,5.3-2.3c1.2,0,2.2,0.3,3.1,0.8c0.9,0.5,1.7,1.4,2.5,2.5
					c-0.1-0.4-0.1-0.8-0.1-1.3c0-0.5,0-1,0-1.6v-9.1h4.4V50.5z M390.1,42.5c0-1.4-0.4-2.6-1.1-3.4c-0.7-0.8-1.7-1.3-2.9-1.3
					c-1.3,0-2.3,0.4-3,1.2c-0.7,0.8-1.1,2-1.1,3.4c0,1.5,0.4,2.6,1.1,3.4c0.7,0.8,1.7,1.2,3,1.2c1.3,0,2.3-0.4,3-1.2
					C389.7,45,390.1,43.9,390.1,42.5z"/>
				<path fill="#231F20" d="M415,50.5h-4.5l0.1-2.3c-0.6,1-1.4,1.8-2.3,2.2c-0.9,0.5-2,0.7-3.2,0.7c-2.1,0-3.8-0.8-5.1-2.4
					c-1.3-1.6-2-3.7-2-6.3c0-2.7,0.6-4.8,1.9-6.3c1.3-1.5,3.1-2.3,5.3-2.3c1.2,0,2.2,0.3,3.1,0.8c0.9,0.5,1.7,1.3,2.3,2.4v-2.6h4.4
					V50.5z M410.7,42.5c0-1.4-0.4-2.6-1.1-3.4c-0.7-0.8-1.7-1.3-2.9-1.3c-1.3,0-2.3,0.4-3,1.2c-0.7,0.8-1.1,2-1.1,3.4
					c0,1.5,0.4,2.6,1.1,3.4c0.7,0.8,1.7,1.2,3,1.2c1.3,0,2.3-0.4,3-1.2C410.4,45,410.7,43.9,410.7,42.5z"/>
				<path fill="#231F20" d="M419.4,48.2c0-0.8,0.3-1.5,0.8-2c0.5-0.6,1.2-0.8,2-0.8c0.8,0,1.4,0.3,2,0.8c0.5,0.6,0.8,1.2,0.8,2
					c0,0.8-0.3,1.4-0.8,2s-1.2,0.8-2,0.8c-0.8,0-1.4-0.3-2-0.8C419.7,49.6,419.4,49,419.4,48.2z"/>
				<path fill="#231F20" d="M445.7,50.5h-4.5l0.1-2.3c-0.6,1-1.4,1.8-2.3,2.2c-0.9,0.5-2,0.7-3.2,0.7c-2.1,0-3.8-0.8-5.1-2.4
					c-1.3-1.6-2-3.7-2-6.3c0-2.7,0.6-4.8,1.9-6.3c1.3-1.5,3.1-2.3,5.3-2.3c1.2,0,2.2,0.3,3.1,0.8c0.9,0.5,1.7,1.4,2.5,2.5
					c-0.1-0.4-0.1-0.8-0.1-1.3c0-0.5,0-1,0-1.6v-9.1h4.4V50.5z M441.5,42.5c0-1.4-0.4-2.6-1.1-3.4c-0.7-0.8-1.7-1.3-2.9-1.3
					c-1.3,0-2.3,0.4-3,1.2c-0.7,0.8-1.1,2-1.1,3.4c0,1.5,0.4,2.6,1.1,3.4s1.7,1.2,3,1.2c1.3,0,2.3-0.4,3-1.2
					C441.1,45,441.5,43.9,441.5,42.5z"/>
				<path fill="#231F20" d="M466,43.6h-12.1c0.2,1.2,0.6,2,1.3,2.6c0.7,0.6,1.5,0.9,2.7,0.9c0.8,0,1.6-0.2,2.2-0.5
					c0.6-0.3,1.1-0.8,1.5-1.5l3.8,1.9c-0.9,1.4-1.9,2.5-3.2,3.1c-1.2,0.7-2.7,1-4.4,1c-2.6,0-4.7-0.8-6.2-2.3
					c-1.5-1.5-2.3-3.6-2.3-6.2c0-2.5,0.8-4.6,2.4-6.2c1.6-1.6,3.6-2.4,6.1-2.4c2.6,0,4.6,0.8,6.1,2.3c1.5,1.5,2.2,3.6,2.2,6.2
					c0,0.1,0,0.3,0,0.5C466,43.1,466,43.3,466,43.6z M461.4,40.8c-0.1-1-0.5-1.8-1.1-2.3c-0.6-0.5-1.4-0.8-2.5-0.8
					c-1,0-1.9,0.3-2.5,0.8c-0.6,0.5-1,1.3-1.2,2.3H461.4z"/>
			</g>
			<g>
				<path fill="#231F20" d="M232.9,25.9V11.1h2.7v5.3c0,0.3,0,0.6,0,0.9c0,0.3,0,0.6-0.1,0.8c0.6-0.7,1.1-1.1,1.7-1.4
					c0.6-0.3,1.2-0.4,1.9-0.4c0.7,0,1.3,0.1,1.8,0.4c0.5,0.3,0.9,0.6,1.2,1.1c0.1,0.3,0.2,0.6,0.3,0.9c0.1,0.3,0.1,0.8,0.1,1.5v0.3
					v5.5h-2.7v-4.7c0-1.2-0.1-1.9-0.4-2.3c-0.3-0.4-0.7-0.6-1.4-0.6c-0.4,0-0.7,0.1-1,0.2c-0.3,0.2-0.6,0.4-0.8,0.7
					c-0.2,0.2-0.3,0.5-0.4,0.8c-0.1,0.3-0.1,0.7-0.1,1.3v0.4v4.1H232.9z"/>
				<path fill="#231F20" d="M245.4,25.9v-7.3h-1.3v-2.1h1.3v-3.1h2.7v3.1h1.3v2.1h-1.3v7.3H245.4z"/>
				<path fill="#231F20" d="M251.4,25.9v-7.3h-1.3v-2.1h1.3v-3.1h2.7v3.1h1.3v2.1h-1.3v7.3H251.4z"/>
				<path fill="#231F20" d="M257.2,30.2V16.5h2.6v1.6c0.4-0.6,0.8-1.1,1.3-1.4c0.5-0.3,1.1-0.5,1.8-0.5c1.3,0,2.4,0.4,3.1,1.3
					c0.8,0.9,1.1,2.1,1.1,3.7c0,1.5-0.4,2.8-1.1,3.7c-0.8,0.9-1.8,1.4-3,1.4c-0.7,0-1.4-0.1-1.9-0.4c-0.5-0.3-1-0.7-1.3-1.3
					c0,0.2,0.1,0.5,0.1,0.8c0,0.3,0,0.6,0,1v3.9H257.2z M259.6,21.2c0,0.9,0.2,1.5,0.6,2c0.4,0.5,1,0.7,1.7,0.7
					c0.7,0,1.3-0.2,1.7-0.7c0.4-0.5,0.6-1.1,0.6-2c0-0.8-0.2-1.5-0.6-2c-0.4-0.5-1-0.7-1.8-0.7c-0.7,0-1.3,0.2-1.7,0.7
					C259.9,19.7,259.6,20.4,259.6,21.2z"/>
				<path fill="#231F20" d="M269.5,18.3c0-0.5,0.2-0.8,0.5-1.2c0.3-0.3,0.7-0.5,1.2-0.5c0.5,0,0.8,0.2,1.2,0.5
					c0.3,0.3,0.5,0.7,0.5,1.2c0,0.5-0.2,0.8-0.5,1.2c-0.3,0.3-0.7,0.5-1.2,0.5c-0.5,0-0.8-0.2-1.2-0.5
					C269.7,19.1,269.5,18.7,269.5,18.3z M269.5,24.6c0-0.5,0.2-0.8,0.5-1.2s0.7-0.5,1.2-0.5c0.5,0,0.8,0.2,1.2,0.5
					c0.3,0.3,0.5,0.7,0.5,1.2c0,0.5-0.2,0.8-0.5,1.2c-0.3,0.3-0.7,0.5-1.2,0.5c-0.5,0-0.8-0.2-1.2-0.5
					C269.7,25.4,269.5,25,269.5,24.6z"/>
			</g>
			<g>
				<path fill="#231F20" d="M275,26.1l4-9.4h1.3l-4,9.4H275z"/>
				<path fill="#231F20" d="M280.4,26.1l4-9.4h1.3l-4,9.4H280.4z"/>
			</g>
		</g>
		<g>
			<circle fill="#FFFFFF" cx="197.5" cy="30.5" r="25.4"/>
			<path fill="#DB1E3E" d="M197.5,4.2c-14.5,0-26.3,11.8-26.3,26.3c0,14.5,11.8,26.3,26.3,26.3s26.3-11.8,26.3-26.3
				C223.8,16,212,4.2,197.5,4.2z M197.5,10.4c2.4,0,4.3,1.9,4.3,4.3c0,2.4-1.9,4.3-4.3,4.3c-2.4,0-4.3-1.9-4.3-4.3
				C193.2,12.3,195.1,10.4,197.5,10.4z M213.8,22.4c-2.1,0.6-10.3,0.1-11.5,3.4c-2.1,5.7,1.7,16.7,3.2,22.1c0.8,2.8-3.7,3.8-4.1,0.9
				c-0.8-5.7-2.7-9.6-3.4-10.4c-0.3-0.3-0.6-0.3-0.9,0c-0.7,0.8-2.6,4.7-3.4,10.3c-0.4,2.9-4.9,1.9-4.1-0.9
				c1.6-5.5,5.4-16.4,3.2-22.1c-1.2-3.3-9.4-2.8-11.5-3.4c-2.2-0.6-1.4-4,1.1-3.3c4.6,1.3,15.2,1.2,15.2,1.2s10.6,0,15.2-1.2
				C215.2,18.4,216,21.8,213.8,22.4z"/>
			<circle fill="none" stroke="#FFFFFF" stroke-width="0.25" stroke-miterlimit="10" cx="197.5" cy="30.5" r="24.7"/>
		</g>
	</g>
</g>
</svg>
