<?xml version="1.0" encoding="UTF-8"?><svg id="a" xmlns="http://www.w3.org/2000/svg" viewBox="0 0 1242.86 237.89"><defs><style>.b{fill:none;stroke:#221120;stroke-miterlimit:10;stroke-width:4px;}.c{fill:#221120;}.c,.d,.e{stroke-width:0px;}.d{fill:#211220;}.e{fill:#e7236b;}</style></defs><path class="d" d="m654.46,169.84c0-1.93-.54-3.46-1.61-4.59-1.08-1.13-2.52-1.69-4.34-1.69s-3.38.45-4.67,1.36-2.19,2.52-2.68,4.83l-11.9-2.81c.77-3.97,2.81-7.13,6.11-9.5,3.31-2.37,7.96-3.56,13.97-3.56,4.02,0,7.45.59,10.29,1.78,2.84,1.19,5.01,2.95,6.53,5.29,1.51,2.34,2.27,5.22,2.27,8.64v15.13c0,2.15.96,3.22,2.89,3.22.99,0,1.79-.11,2.4-.33l-.83,8.02c-1.65.77-3.66,1.15-6.03,1.15-2.15,0-4.05-.34-5.7-1.03-1.65-.69-2.95-1.74-3.88-3.14-.94-1.4-1.4-3.18-1.4-5.33v-.5l1.57-.58c0,2.37-.7,4.35-2.11,5.95-1.4,1.6-3.22,2.78-5.45,3.56-2.23.77-4.56,1.15-6.99,1.15-2.81,0-5.26-.44-7.35-1.32-2.09-.88-3.71-2.16-4.83-3.84-1.13-1.68-1.7-3.76-1.7-6.24,0-2.98.9-5.44,2.69-7.39,1.79-1.96,4.61-3.32,8.47-4.09l15.62-3.22-.08,7.44-7.94,1.65c-1.65.33-2.88.81-3.68,1.45s-1.2,1.58-1.2,2.85.44,2.12,1.33,2.73c.88.61,1.93.91,3.14.91.94,0,1.83-.14,2.69-.41.85-.28,1.61-.7,2.27-1.28.66-.58,1.18-1.31,1.57-2.19.39-.88.58-1.93.58-3.14v-10.91Z"/><path class="d" d="m698.51,153.89c4.18,0,7.67.59,10.45,1.78,2.78,1.19,4.96,2.76,6.53,4.71,1.57,1.95,2.55,4.06,2.93,6.32l-12.97,4.3c-.39-2.37-1.09-4.14-2.11-5.33-1.02-1.18-2.49-1.78-4.42-1.78-1.76,0-3.24.4-4.42,1.2-1.19.8-2.08,2.06-2.68,3.8-.61,1.73-.91,3.95-.91,6.65s.33,4.89.99,6.57c.66,1.68,1.6,2.89,2.81,3.64,1.21.74,2.65,1.11,4.3,1.11,1.38,0,2.52-.26,3.43-.78.91-.52,1.67-1.28,2.28-2.27.61-.99.99-2.2,1.15-3.64l12.65,4.05c-.39,2.42-1.42,4.58-3.1,6.49-1.68,1.9-3.9,3.4-6.65,4.51-2.76,1.1-5.98,1.65-9.67,1.65-4.52,0-8.46-.84-11.82-2.52-3.36-1.68-5.95-4.13-7.77-7.36-1.82-3.22-2.73-7.09-2.73-11.61s.91-8.39,2.73-11.61c1.82-3.22,4.37-5.67,7.64-7.35,3.28-1.68,7.07-2.52,11.37-2.52Z"/><path class="d" d="m745.86,196.86c-4.52,0-8.44-.85-11.77-2.56-3.33-1.71-5.89-4.15-7.69-7.31-1.79-3.17-2.68-7.04-2.68-11.61s.89-8.44,2.68-11.61c1.79-3.17,4.32-5.6,7.6-7.31,3.28-1.71,7.04-2.56,11.28-2.56s8.04.84,11.07,2.52c3.03,1.68,5.36,3.99,6.98,6.94,1.62,2.95,2.44,6.32,2.44,10.12,0,1.05-.03,2.05-.08,3.02-.06.97-.14,1.78-.25,2.44h-32.73v-7.6h26.61l-6.78,2.64c0-3.31-.59-5.84-1.78-7.6s-3.01-2.64-5.49-2.64c-1.76,0-3.26.41-4.51,1.24-1.24.83-2.18,2.11-2.81,3.84s-.95,3.98-.95,6.74.36,4.96,1.08,6.61c.72,1.65,1.73,2.87,3.06,3.63,1.33.77,2.92,1.16,4.79,1.16,2.09,0,3.76-.41,5-1.24,1.24-.83,2.16-1.98,2.77-3.47l11.24,3.8c-.77,2.31-2.11,4.29-4.01,5.91-1.9,1.62-4.15,2.85-6.74,3.68-2.59.83-5.37,1.24-8.35,1.24Z"/><path class="d" d="m790.98,196.86c-4.13,0-7.97-.67-11.53-2.02-3.55-1.35-6.52-3.29-8.88-5.83l6.61-7.77c1.43,1.76,3.28,3.24,5.54,4.42,2.26,1.19,4.79,1.78,7.61,1.78,1.76,0,3.19-.23,4.3-.7,1.1-.47,1.65-1.25,1.65-2.35,0-.77-.28-1.39-.83-1.86-.55-.47-1.65-.89-3.31-1.28l-5.7-1.08c-5.24-1.04-8.95-2.6-11.16-4.67-2.2-2.07-3.31-4.78-3.31-8.14,0-2.26.7-4.41,2.11-6.45,1.4-2.04,3.55-3.72,6.44-5.04,2.89-1.32,6.54-1.98,10.95-1.98s7.88.61,11.07,1.82c3.2,1.22,5.75,2.98,7.69,5.29l-6.78,7.6c-1.32-1.71-3.03-3.01-5.12-3.92-2.09-.91-4.21-1.37-6.36-1.37-1.27,0-2.35.12-3.26.37-.91.25-1.59.61-2.03,1.07-.44.47-.66,1.01-.66,1.61,0,.72.34,1.34,1.03,1.86.69.53,1.97.98,3.84,1.36l7.52,1.49c4.24.77,7.3,2.18,9.17,4.21,1.87,2.04,2.81,4.52,2.81,7.44,0,2.59-.72,4.97-2.15,7.15s-3.58,3.88-6.44,5.12c-2.87,1.24-6.47,1.86-10.83,1.86Z"/><path class="d" d="m835.03,196.86c-4.13,0-7.97-.67-11.53-2.02-3.55-1.35-6.52-3.29-8.88-5.83l6.61-7.77c1.43,1.76,3.28,3.24,5.54,4.42,2.26,1.19,4.79,1.78,7.61,1.78,1.76,0,3.19-.23,4.3-.7,1.1-.47,1.65-1.25,1.65-2.35,0-.77-.28-1.39-.83-1.86-.55-.47-1.65-.89-3.31-1.28l-5.7-1.08c-5.24-1.04-8.95-2.6-11.16-4.67s-3.31-4.78-3.31-8.14c0-2.26.7-4.41,2.11-6.45,1.4-2.04,3.55-3.72,6.44-5.04,2.89-1.32,6.54-1.98,10.95-1.98s7.88.61,11.07,1.82c3.2,1.22,5.75,2.98,7.69,5.29l-6.78,7.6c-1.32-1.71-3.03-3.01-5.12-3.92-2.09-.91-4.21-1.37-6.36-1.37-1.27,0-2.35.12-3.26.37-.91.25-1.59.61-2.03,1.07-.44.47-.66,1.01-.66,1.61,0,.72.34,1.34,1.03,1.86.69.53,1.97.98,3.84,1.36l7.52,1.49c4.24.77,7.3,2.18,9.17,4.21,1.87,2.04,2.81,4.52,2.81,7.44,0,2.59-.72,4.97-2.15,7.15-1.43,2.18-3.58,3.88-6.44,5.12-2.87,1.24-6.47,1.86-10.83,1.86Z"/><path class="d" d="m912.29,196.86c-2.7,0-5.08-.61-7.15-1.82-2.07-1.21-3.76-2.88-5.08-5-1.33-2.12-2.18-4.53-2.56-7.23l1.32-1.74-.74,14.96h-12.32v-58.84h14.05v30.49l-1.32-1.98c.77-3.42,2.34-6.24,4.71-8.47,2.37-2.23,5.57-3.35,9.59-3.35,3.2,0,6.05.86,8.55,2.56,2.51,1.71,4.46,4.17,5.87,7.39,1.4,3.23,2.11,7.12,2.11,11.7s-.72,8.29-2.15,11.49c-1.43,3.2-3.42,5.63-5.95,7.31s-5.51,2.52-8.92,2.52Zm-4.88-10.33c2.42,0,4.32-.89,5.7-2.69,1.38-1.79,2.07-4.61,2.07-8.47s-.69-6.68-2.07-8.47c-1.38-1.79-3.28-2.68-5.7-2.68-1.6,0-2.96.45-4.09,1.36-1.13.91-2,2.19-2.6,3.84-.61,1.65-.91,3.66-.91,6.03s.3,4.38.91,6.03c.61,1.65,1.49,2.91,2.65,3.76,1.15.85,2.51,1.28,4.05,1.28Z"/><path class="d" d="m975.51,137.2v44.79c0,1.82.3,3.12.91,3.88.6.77,1.62,1.16,3.06,1.16.83,0,1.51-.05,2.07-.17.55-.11,1.21-.27,1.98-.5l-.91,8.43c-.99.61-2.29,1.1-3.88,1.48-1.6.39-3.17.58-4.71.58-4.41,0-7.61-1.02-9.59-3.06-1.98-2.04-2.98-5.37-2.98-10v-46.61h14.05Z"/><path class="d" d="m1027.9,196.86c-3.42,0-6.41-.84-8.97-2.52-2.56-1.68-4.54-4.12-5.95-7.31-1.4-3.2-2.11-7.02-2.11-11.49s.73-8.54,2.19-11.74c1.46-3.19,3.5-5.65,6.11-7.35,2.62-1.71,5.63-2.56,9.05-2.56,3.74,0,6.76,1.14,9.05,3.43,2.29,2.29,3.76,5.19,4.42,8.72l-1.32,1.73v-30.58h14.05v58.84h-12.56l-.91-14.05,1.65,1.24c-.33,2.76-1.17,5.15-2.52,7.19-1.35,2.04-3.06,3.62-5.12,4.75s-4.42,1.69-7.06,1.69Zm4.87-10.33c1.6,0,2.96-.43,4.09-1.28,1.13-.86,2-2.14,2.6-3.84.61-1.71.91-3.8.91-6.28,0-2.31-.29-4.29-.87-5.91-.58-1.62-1.43-2.86-2.56-3.72-1.13-.86-2.5-1.28-4.09-1.28-2.42,0-4.34.89-5.74,2.68-1.4,1.79-2.11,4.62-2.11,8.47s.69,6.68,2.06,8.47c1.38,1.79,3.28,2.69,5.7,2.69Z"/><path class="d" d="m1087.56,169.84c0-1.93-.54-3.46-1.61-4.59-1.08-1.13-2.52-1.69-4.34-1.69s-3.38.45-4.67,1.36c-1.29.91-2.19,2.52-2.68,4.83l-11.9-2.81c.77-3.97,2.81-7.13,6.11-9.5s7.96-3.56,13.97-3.56c4.02,0,7.45.59,10.29,1.78,2.84,1.19,5.01,2.95,6.53,5.29,1.51,2.34,2.27,5.22,2.27,8.64v15.13c0,2.15.96,3.22,2.89,3.22.99,0,1.79-.11,2.4-.33l-.83,8.02c-1.65.77-3.66,1.15-6.03,1.15-2.15,0-4.05-.34-5.7-1.03-1.65-.69-2.95-1.74-3.88-3.14-.94-1.4-1.4-3.18-1.4-5.33v-.5l1.57-.58c0,2.37-.7,4.35-2.11,5.95-1.4,1.6-3.22,2.78-5.45,3.56-2.23.77-4.56,1.15-6.99,1.15-2.81,0-5.26-.44-7.35-1.32s-3.71-2.16-4.83-3.84-1.7-3.76-1.7-6.24c0-2.98.9-5.44,2.69-7.39,1.79-1.96,4.61-3.32,8.47-4.09l15.62-3.22-.08,7.44-7.94,1.65c-1.65.33-2.88.81-3.68,1.45s-1.2,1.58-1.2,2.85.44,2.12,1.33,2.73c.88.61,1.93.91,3.14.91.94,0,1.83-.14,2.69-.41.85-.28,1.61-.7,2.27-1.28.66-.58,1.18-1.31,1.57-2.19.39-.88.58-1.93.58-3.14v-10.91Z"/><path class="d" d="m1127.23,196.86c-3.42,0-6.41-.84-8.97-2.52-2.56-1.68-4.54-4.12-5.95-7.31-1.4-3.2-2.11-7.02-2.11-11.49s.73-8.54,2.19-11.74c1.46-3.19,3.5-5.65,6.11-7.35,2.62-1.71,5.63-2.56,9.05-2.56,3.74,0,6.76,1.14,9.05,3.43,2.29,2.29,3.76,5.19,4.42,8.72l-1.32,1.73v-30.58h14.05v58.84h-12.56l-.91-14.05,1.65,1.24c-.33,2.76-1.17,5.15-2.52,7.19s-3.06,3.62-5.12,4.75c-2.07,1.13-4.42,1.69-7.06,1.69Zm4.87-10.33c1.6,0,2.96-.43,4.09-1.28,1.13-.86,2-2.14,2.6-3.84.61-1.71.91-3.8.91-6.28,0-2.31-.29-4.29-.87-5.91-.58-1.62-1.43-2.86-2.56-3.72-1.13-.86-2.5-1.28-4.09-1.28-2.42,0-4.34.89-5.74,2.68-1.4,1.79-2.11,4.62-2.11,8.47s.69,6.68,2.06,8.47c1.38,1.79,3.28,2.69,5.7,2.69Z"/><path class="d" d="m1183.92,196.86c-4.52,0-8.44-.85-11.77-2.56s-5.89-4.15-7.69-7.31c-1.79-3.17-2.68-7.04-2.68-11.61s.89-8.44,2.68-11.61c1.79-3.17,4.32-5.6,7.6-7.31,3.28-1.71,7.04-2.56,11.28-2.56s8.04.84,11.07,2.52c3.03,1.68,5.36,3.99,6.98,6.94,1.62,2.95,2.44,6.32,2.44,10.12,0,1.05-.03,2.05-.08,3.02-.06.97-.14,1.78-.25,2.44h-32.73v-7.6h26.61l-6.78,2.64c0-3.31-.59-5.84-1.78-7.6s-3.01-2.64-5.49-2.64c-1.76,0-3.26.41-4.51,1.24-1.24.83-2.18,2.11-2.81,3.84-.63,1.73-.95,3.98-.95,6.74s.36,4.96,1.08,6.61c.72,1.65,1.73,2.87,3.06,3.63,1.33.77,2.92,1.16,4.79,1.16,2.09,0,3.76-.41,5-1.24,1.24-.83,2.16-1.98,2.77-3.47l11.24,3.8c-.77,2.31-2.11,4.29-4.01,5.91-1.9,1.62-4.15,2.85-6.74,3.68s-5.37,1.24-8.35,1.24Z"/><path class="d" d="m877.64,196.01h-14.14v-41.8s6.55,3.58,14.14,0v41.8Z"/><path class="d" d="m951.87,196.01h-14.14v-41.8s6.55,3.58,14.14,0v41.8Z"/><path class="d" d="m1004.89,196.01h-14.14v-41.8s6.55,3.58,14.14,0v41.8Z"/><path class="e" d="m839.34,83.02c.49,11.35-16.87,34.99-30.38,35.57-6.96.3-13.82-5.03-14.37-15.88-3.96,5.48-8.14,10.01-11.62,10.16-10.01.43-13.81-6.42-14.36-19.1-8.59,10.23-17.26,29.82-27.93,30.28-4.83.21-12.95-5.96-13.29-13.79-.06-1.31-.01-2.63.08-3.93-4.59,5.67-9.66,10.53-13.68,10.7-6.17.27-11.85-3.49-13.02-11.3-.25-1.83-.34-3.99-.12-6.51-.76,1.71-10.62,24.86-22.96,25.39-7.67.33-13.95-5.75-14.24-12.42-.43-13.85,17.14-32.66,16.88-38.66-.03-.67-.71-.97-1.54-.93-1.34.06-15.67-.22-23.01.09-8.16,19.91-72.89,88.94-55.37,152.8,2.12,7.72,3.08,9.38,3.14,10.72.03.67-.76,1.54-2.1,1.6-4,.17-14.11-6.58-15.08-20.23-5.17-72.34,47.49-126.23,56.82-146.18-8.42-.41-11.16-1.47-14.61-3.7-1.87-1.21-3.7-4.41,2.81-4.7.67-.03,8.79,1.62,15.18,1.24,5.04-10.92,9.11-21.12,9.61-29,.1-1.51.57-2.19,1.57-2.24,1.17-.05,5.92,1.58,6.32,10.92.07,5.35-1.96,12.45-4.96,20.43,12.51-.54,33.59,1.12,34.01,10.79.25,5.84-13.59,25.83-13.06,38,.07,1.5.94,2.3,2.1,2.25,2.67-.12,7.76-5.85,16.4-22.6,7.55-14.69,8.51-23.42,13.18-23.63,4.84-.21,8.08,5.16,8.2,8,.29,6.83-7.31,20.2-6.94,28.7.07,1.67,1.29,2.79,2.79,2.72,3.32-.14,11.72-12.4,17.27-19.98,7.59-13.79,21.24-24.3,31.11-24.73,4.17-.18,7.47,2.69,7.54,4.35.04.99-3.89,2.84-7.57,6.52-7.05,6.99-24.86,24.14-24.17,39.98.05,1.16.59,1.98,1.59,1.93,3.84-.17,26.19-31.88,33.14-45.05,11.28-21.37,17.81-44.21,21.54-66.1.65-4.2.77-5.21,2.44-5.28,3.67-.16,11.27,5.69,11.73,16.2.66,15.35-32.06,66.05-31.23,85.23.12,2.84,1.04,4.8,2.71,4.73,3.28-.14,11.13-11.39,16.79-19.93,6.4-12.84,19.09-24.56,29.07-25,3.84-.17,8.01,3.67,8.1,5.67.07,1.5-1.23,2.23-3.85,3.68-9.79,5.44-24.89,23.3-24.21,38.98.09,2,1.31,3.11,2.97,3.04,6.34-.28,21.43-22.15,21.14-36.67-.05-1.17.27-1.68,1.1-1.72,2.33-.09,6.14,2.91,6.38,8.59Zm85.44-3.93c.04,1-.41,2.03-1.19,3.4-5.78,9.28-22.21,31.37-33.22,31.85-10.34.44-20.45-5.47-21.02-18.64-.91-21.02,18.74-38.07,30.58-38.59,4.17-.18,10.09,5.41,10.31,10.42.3,10.84-11.35,23.55-20.18,23.93-2,.09-5.42-1.61-5.42-1.61,0,0-1.97,4.6-1.67,11.6.22,5,2.12,6.6,4.3,6.5,11.34-.49,25.43-18.48,33.11-30.35.63-.86.94-1.38,1.44-1.4,1.5-.07,2.92,1.71,2.97,2.88Zm-38.21,5.34c4.34-.19,17.29-13.79,17.42-18.31-.03-.67-.38-1.15-.89-1.13-1.83.08-8.83,4.4-16.54,19.44Zm10.01-35.11c1.97-.09,10.92-9.63,10.81-12.23-.11-2.59-3.74-7.12-5.51-7.04-1.45.06-2.63,4.17-4.45,7.89-2.01,4.15-4.39,6.75-4.31,8.52.07,1.76,2.1,2.93,3.45,2.87Zm-25.86,88.07c-3.88,0-7.02,3.14-7.02,7.02s3.14,7.02,7.02,7.02,7.02-3.14,7.02-7.02-3.14-7.02-7.02-7.02Zm74.08,0c-3.88,0-7.02,3.14-7.02,7.02s3.14,7.02,7.02,7.02,7.02-3.14,7.02-7.02-3.14-7.02-7.02-7.02Zm52.92,0c-3.88,0-7.02,3.14-7.02,7.02s3.14,7.02,7.02,7.02,7.02-3.14,7.02-7.02-3.14-7.02-7.02-7.02Zm219.88-11.53c11.11,25.01,27,54.81,7.06,88.05-5.22,8.71-5.21,11.18-5.62,12.93-.21.87.24,2.36,1.39,2.99,3.42,1.89,13.17-3.11,18.54-20.59,11.84-38.5-6.79-73.77-10.84-82.22l-6.04-11.73c-4.06-7.89-10.52-3.67-8.66.96"/><path class="c" d="m33.18,115.04c-6.11,0-10.88-1.69-14.32-5.06-3.44-3.37-5.16-8.14-5.16-14.32s1.59-11.27,4.77-14.74c3.18-3.47,7.57-5.21,13.18-5.21s9.53,1.53,12.52,4.58c2.99,3.05,4.48,7.27,4.48,12.66v5.02h-24.46c.11,2.94.98,5.24,2.61,6.89,1.63,1.65,3.91,2.48,6.85,2.48,2.28,0,4.44-.24,6.48-.71,2.04-.48,4.16-1.23,6.38-2.27v8.01c-1.81.91-3.74,1.58-5.8,2.02-2.06.44-4.57.66-7.53.66Zm-1.46-31.96c-2.19,0-3.91.7-5.16,2.09-1.24,1.39-1.96,3.36-2.14,5.92h14.52c-.05-2.56-.71-4.53-2-5.92s-3.03-2.09-5.22-2.09Z"/><path class="c" d="m83.53,103.1c0,3.89-1.35,6.85-4.05,8.89-2.7,2.04-6.75,3.05-12.13,3.05-2.76,0-5.11-.19-7.06-.56-1.95-.37-3.77-.92-5.46-1.65v-8.55c1.92.91,4.09,1.66,6.5,2.27,2.41.61,4.53.92,6.36.92,3.75,0,5.63-1.09,5.63-3.26,0-.81-.25-1.48-.75-1.98-.5-.51-1.36-1.09-2.58-1.73-1.22-.64-2.85-1.4-4.89-2.26-2.92-1.22-5.06-2.35-6.43-3.39-1.37-1.04-2.36-2.23-2.99-3.58-.62-1.35-.93-3-.93-4.97,0-3.37,1.31-5.98,3.92-7.82,2.61-1.84,6.32-2.77,11.11-2.77s9.01,1,13.33,2.99l-3.12,7.46c-1.9-.81-3.68-1.48-5.33-2-1.65-.52-3.34-.78-5.06-.78-3.05,0-4.58.83-4.58,2.48,0,.93.49,1.73,1.48,2.41.98.68,3.14,1.69,6.46,3.02,2.96,1.2,5.13,2.32,6.51,3.36,1.38,1.04,2.4,2.24,3.05,3.6.66,1.36.98,2.97.98,4.85Z"/><path class="c" d="m107.58,106.8c1.81,0,3.98-.4,6.51-1.19v7.7c-2.58,1.15-5.75,1.73-9.5,1.73-4.14,0-7.15-1.05-9.04-3.14-1.89-2.09-2.83-5.23-2.83-9.41v-18.29h-4.95v-4.38l5.7-3.46,2.99-8.01h6.62v8.07h10.62v7.77h-10.62v18.29c0,1.47.41,2.56,1.24,3.26.83.7,1.92,1.05,3.27,1.05Z"/><path class="c" d="m138.93,115.04c-6.11,0-10.88-1.69-14.32-5.06-3.44-3.37-5.16-8.14-5.16-14.32s1.59-11.27,4.77-14.74c3.18-3.47,7.57-5.21,13.18-5.21s9.53,1.53,12.52,4.58c2.99,3.05,4.48,7.27,4.48,12.66v5.02h-24.46c.11,2.94.98,5.24,2.61,6.89,1.63,1.65,3.91,2.48,6.85,2.48,2.28,0,4.44-.24,6.48-.71,2.04-.48,4.16-1.23,6.38-2.27v8.01c-1.81.91-3.74,1.58-5.8,2.02-2.06.44-4.57.66-7.53.66Zm-1.46-31.96c-2.19,0-3.91.7-5.16,2.09-1.24,1.39-1.96,3.36-2.14,5.92h14.52c-.05-2.56-.71-4.53-2-5.92s-3.03-2.09-5.22-2.09Z"/><path class="c" d="m201.7,115.04c-4.46,0-7.95-1.62-10.48-4.85h-.54c.36,3.17.54,5,.54,5.5v15.37h-10.35v-54.62h8.41l1.46,4.92h.48c2.42-3.75,6.01-5.63,10.75-5.63,4.48,0,7.98,1.73,10.52,5.19,2.53,3.46,3.8,8.27,3.8,14.42,0,4.05-.59,7.57-1.78,10.55s-2.88,5.26-5.07,6.82c-2.19,1.56-4.77,2.34-7.74,2.34Zm-3.05-31.04c-2.56,0-4.42.79-5.6,2.36-1.18,1.57-1.79,4.17-1.83,7.79v1.12c0,4.07.6,6.99,1.81,8.75,1.21,1.76,3.13,2.65,5.75,2.65,4.64,0,6.96-3.82,6.96-11.47,0-3.73-.57-6.53-1.71-8.4-1.14-1.87-2.93-2.8-5.38-2.8Z"/><path class="c" d="m246.01,75.72c1.4,0,2.57.1,3.49.31l-.78,9.7c-.84-.23-1.85-.34-3.05-.34-3.3,0-5.88.85-7.72,2.54-1.84,1.7-2.77,4.07-2.77,7.12v19.3h-10.35v-37.93h7.84l1.53,6.38h.51c1.18-2.13,2.77-3.84,4.77-5.14,2-1.3,4.18-1.95,6.53-1.95Z"/><path class="c" d="m290.86,95.33c0,6.18-1.63,11-4.89,14.49-3.26,3.48-7.79,5.23-13.6,5.23-3.64,0-6.85-.8-9.64-2.39s-4.92-3.88-6.41-6.87c-1.49-2.99-2.24-6.47-2.24-10.45,0-6.2,1.62-11.01,4.85-14.45,3.23-3.44,7.78-5.16,13.64-5.16,3.64,0,6.85.79,9.64,2.38,2.78,1.58,4.92,3.86,6.41,6.82,1.49,2.96,2.24,6.44,2.24,10.42Zm-26.23,0c0,3.75.62,6.59,1.85,8.52,1.23,1.92,3.24,2.88,6.02,2.88s4.74-.96,5.95-2.87c1.21-1.91,1.81-4.76,1.81-8.53s-.61-6.57-1.83-8.45c-1.22-1.88-3.22-2.82-6.01-2.82s-4.75.93-5.97,2.8c-1.22,1.87-1.83,4.69-1.83,8.46Z"/><path class="c" d="m296.36,131.06c-2.65,0-4.92-.28-6.82-.85v-8.14c1.58.43,3.2.64,4.85.64,1.74,0,3.01-.49,3.82-1.46.8-.97,1.2-2.41,1.2-4.31v-40.51h10.35v42.04c0,4.03-1.17,7.13-3.49,9.31-2.33,2.18-5.63,3.27-9.91,3.27Zm2.61-64.43c0-3.37,1.88-5.06,5.63-5.06s5.63,1.69,5.63,5.06c0,1.61-.47,2.86-1.41,3.75-.94.89-2.35,1.34-4.22,1.34-3.75,0-5.63-1.7-5.63-5.09Z"/><path class="c" d="m337.78,115.04c-6.11,0-10.88-1.69-14.32-5.06-3.44-3.37-5.16-8.14-5.16-14.32s1.59-11.27,4.77-14.74c3.18-3.47,7.57-5.21,13.18-5.21s9.53,1.53,12.52,4.58c2.99,3.05,4.48,7.27,4.48,12.66v5.02h-24.46c.11,2.94.98,5.24,2.61,6.89,1.63,1.65,3.91,2.48,6.85,2.48,2.28,0,4.44-.24,6.48-.71,2.04-.48,4.16-1.23,6.38-2.27v8.01c-1.81.91-3.74,1.58-5.8,2.02-2.06.44-4.57.66-7.53.66Zm-1.46-31.96c-2.19,0-3.91.7-5.16,2.09-1.24,1.39-1.96,3.36-2.14,5.92h14.52c-.05-2.56-.71-4.53-2-5.92s-3.03-2.09-5.22-2.09Z"/><path class="c" d="m377.65,106.8c1.81,0,3.98-.4,6.51-1.19v7.7c-2.58,1.15-5.75,1.73-9.5,1.73-4.14,0-7.15-1.05-9.04-3.14-1.89-2.09-2.83-5.23-2.83-9.41v-18.29h-4.95v-4.38l5.7-3.46,2.99-8.01h6.62v8.07h10.62v7.77h-10.62v18.29c0,1.47.41,2.56,1.24,3.26.83.7,1.92,1.05,3.27,1.05Z"/><path class="c" d="m426.3,95.33c0,6.18-1.63,11-4.89,14.49-3.26,3.48-7.79,5.23-13.6,5.23-3.64,0-6.85-.8-9.64-2.39s-4.92-3.88-6.41-6.87c-1.49-2.99-2.24-6.47-2.24-10.45,0-6.2,1.62-11.01,4.85-14.45,3.23-3.44,7.78-5.16,13.64-5.16,3.64,0,6.85.79,9.64,2.38,2.78,1.58,4.92,3.86,6.41,6.82,1.49,2.96,2.24,6.44,2.24,10.42Zm-26.23,0c0,3.75.62,6.59,1.85,8.52,1.23,1.92,3.24,2.88,6.02,2.88s4.74-.96,5.95-2.87c1.21-1.91,1.81-4.76,1.81-8.53s-.61-6.57-1.83-8.45c-1.22-1.88-3.22-2.82-6.01-2.82s-4.75.93-5.97,2.8c-1.22,1.87-1.83,4.69-1.83,8.46Z"/><path class="c" d="m470.07,115.04c-6.11,0-10.88-1.69-14.32-5.06-3.44-3.37-5.16-8.14-5.16-14.32s1.59-11.27,4.77-14.74c3.18-3.47,7.57-5.21,13.18-5.21s9.53,1.53,12.52,4.58c2.99,3.05,4.48,7.27,4.48,12.66v5.02h-24.46c.11,2.94.98,5.24,2.61,6.89,1.63,1.65,3.91,2.48,6.85,2.48,2.28,0,4.44-.24,6.48-.71,2.04-.48,4.16-1.23,6.38-2.27v8.01c-1.81.91-3.74,1.58-5.8,2.02-2.06.44-4.57.66-7.53.66Zm-1.46-31.96c-2.19,0-3.91.7-5.16,2.09-1.24,1.39-1.96,3.36-2.14,5.92h14.52c-.05-2.56-.71-4.53-2-5.92s-3.03-2.09-5.22-2.09Zm-5.97-10.82v-.92c3.89-4.52,6.55-7.93,7.97-10.21h11.6v.71c-1.18,1.18-3.18,2.92-6.02,5.24-2.84,2.32-5.06,4.04-6.67,5.17h-6.89Z"/><path class="c" d="m27.07,197.75l-1.39-4.85h-.54c-1.11,1.76-2.68,3.13-4.72,4.09-2.04.96-4.35,1.44-6.96,1.44-4.46,0-7.82-1.19-10.08-3.58-2.26-2.39-3.39-5.82-3.39-10.3v-24.73h10.35v22.15c0,2.74.49,4.79,1.46,6.16.97,1.37,2.52,2.05,4.65,2.05,2.9,0,4.99-.97,6.28-2.9,1.29-1.93,1.93-5.14,1.93-9.62v-17.85h10.35v37.93h-7.94Z"/><path class="c" d="m79.83,197.75h-10.35v-22.15c0-2.74-.46-4.79-1.37-6.16s-2.36-2.05-4.33-2.05c-2.65,0-4.57.97-5.77,2.92-1.2,1.95-1.8,5.15-1.8,9.6v17.85h-10.35v-37.93h7.91l1.39,4.85h.58c1.02-1.74,2.49-3.1,4.41-4.09,1.92-.98,4.13-1.48,6.62-1.48,5.68,0,9.52,1.85,11.54,5.56h.92c1.02-1.76,2.52-3.13,4.5-4.1,1.98-.97,4.21-1.46,6.7-1.46,4.3,0,7.55,1.1,9.75,3.31,2.21,2.21,3.31,5.74,3.31,10.6v24.73h-10.38v-22.15c0-2.74-.46-4.79-1.37-6.16s-2.36-2.05-4.33-2.05c-2.53,0-4.43.9-5.68,2.71s-1.88,4.68-1.88,8.62v19.03Z"/><path class="c" d="m138.19,197.75l-2-5.16h-.27c-1.74,2.19-3.53,3.72-5.38,4.56-1.84.85-4.25,1.27-7.21,1.27-3.64,0-6.51-1.04-8.6-3.12-2.09-2.08-3.14-5.04-3.14-8.89s1.41-6.99,4.22-8.91c2.82-1.91,7.06-2.97,12.74-3.17l6.58-.2v-1.66c0-3.84-1.97-5.77-5.9-5.77-3.03,0-6.59.92-10.69,2.75l-3.43-6.99c4.37-2.28,9.21-3.43,14.52-3.43s8.99,1.11,11.71,3.32c2.71,2.22,4.07,5.59,4.07,10.11v25.28h-7.23Zm-3.05-17.57l-4,.14c-3.01.09-5.25.63-6.72,1.63-1.47,1-2.21,2.51-2.21,4.55,0,2.92,1.67,4.38,5.02,4.38,2.4,0,4.31-.69,5.75-2.07,1.44-1.38,2.15-3.21,2.15-5.5v-3.12Z"/><path class="c" d="m173.68,150.01c0-3.37,1.88-5.06,5.63-5.06s5.63,1.69,5.63,5.06c0,1.61-.47,2.86-1.41,3.75-.94.89-2.35,1.34-4.22,1.34-3.75,0-5.63-1.7-5.63-5.09Zm10.79,47.74h-10.35v-37.93h10.35v37.93Z"/><path class="c" d="m230.33,197.75h-10.35v-22.15c0-2.74-.49-4.79-1.46-6.16s-2.52-2.05-4.65-2.05c-2.9,0-4.99.97-6.28,2.9-1.29,1.93-1.93,5.14-1.93,9.62v17.85h-10.35v-37.93h7.91l1.39,4.85h.58c1.15-1.83,2.74-3.22,4.77-4.16,2.02-.94,4.33-1.41,6.9-1.41,4.41,0,7.76,1.19,10.04,3.58,2.28,2.39,3.43,5.83,3.43,10.33v24.73Z"/><path class="c" d="m240.55,150.01c0-3.37,1.88-5.06,5.63-5.06s5.63,1.69,5.63,5.06c0,1.61-.47,2.86-1.41,3.75-.94.89-2.35,1.34-4.22,1.34-3.75,0-5.63-1.7-5.63-5.09Zm10.79,47.74h-10.35v-37.93h10.35v37.93Z"/><path class="c" d="m277.6,198.42c-11.81,0-17.71-6.48-17.71-19.44,0-6.45,1.61-11.37,4.82-14.78,3.21-3.4,7.81-5.11,13.81-5.11,4.39,0,8.32.86,11.81,2.58l-3.05,8.01c-1.63-.66-3.14-1.19-4.55-1.61-1.4-.42-2.8-.63-4.21-.63-5.38,0-8.07,3.82-8.07,11.47s2.69,11.13,8.07,11.13c1.99,0,3.83-.27,5.53-.8,1.7-.53,3.39-1.36,5.09-2.49v8.86c-1.67,1.06-3.36,1.8-5.07,2.21-1.71.41-3.86.61-6.46.61Z"/><path class="c" d="m297.48,150.01c0-3.37,1.88-5.06,5.63-5.06s5.63,1.69,5.63,5.06c0,1.61-.47,2.86-1.41,3.75-.94.89-2.35,1.34-4.22,1.34-3.75,0-5.63-1.7-5.63-5.09Zm10.79,47.74h-10.35v-37.93h10.35v37.93Z"/><path class="c" d="m343.21,197.75l-2-5.16h-.27c-1.74,2.19-3.53,3.72-5.38,4.56-1.84.85-4.25,1.27-7.21,1.27-3.64,0-6.51-1.04-8.6-3.12-2.09-2.08-3.14-5.04-3.14-8.89s1.41-6.99,4.22-8.91c2.82-1.91,7.06-2.97,12.74-3.17l6.58-.2v-1.66c0-3.84-1.97-5.77-5.9-5.77-3.03,0-6.59.92-10.69,2.75l-3.43-6.99c4.37-2.28,9.21-3.43,14.52-3.43s8.99,1.11,11.71,3.32c2.71,2.22,4.07,5.59,4.07,10.11v25.28h-7.23Zm-3.05-17.57l-4,.14c-3.01.09-5.25.63-6.72,1.63-1.47,1-2.21,2.51-2.21,4.55,0,2.92,1.67,4.38,5.02,4.38,2.4,0,4.31-.69,5.75-2.07,1.44-1.38,2.15-3.21,2.15-5.5v-3.12Z"/><path class="c" d="m377.07,190.18c1.81,0,3.98-.4,6.51-1.19v7.7c-2.58,1.15-5.75,1.73-9.5,1.73-4.14,0-7.15-1.05-9.04-3.14-1.89-2.09-2.83-5.23-2.83-9.41v-18.29h-4.95v-4.38l5.7-3.46,2.99-8.01h6.62v8.07h10.62v7.77h-10.62v18.29c0,1.47.41,2.56,1.24,3.26.83.7,1.92,1.05,3.27,1.05Z"/><path class="c" d="m390.81,150.01c0-3.37,1.88-5.06,5.63-5.06s5.63,1.69,5.63,5.06c0,1.61-.47,2.86-1.41,3.75-.94.89-2.35,1.34-4.22,1.34-3.75,0-5.63-1.7-5.63-5.09Zm10.79,47.74h-10.35v-37.93h10.35v37.93Z"/><path class="c" d="m421.48,197.75l-14.45-37.93h10.82l7.33,21.61c.81,2.74,1.32,5.33,1.53,7.77h.2c.11-2.17.62-4.76,1.53-7.77l7.29-21.61h10.82l-14.45,37.93h-10.62Z"/><path class="c" d="m476.07,197.75l-2-5.16h-.27c-1.74,2.19-3.53,3.72-5.38,4.56-1.84.85-4.25,1.27-7.21,1.27-3.64,0-6.51-1.04-8.6-3.12-2.09-2.08-3.14-5.04-3.14-8.89s1.41-6.99,4.22-8.91c2.82-1.91,7.06-2.97,12.74-3.17l6.58-.2v-1.66c0-3.84-1.97-5.77-5.9-5.77-3.03,0-6.59.92-10.69,2.75l-3.43-6.99c4.37-2.28,9.21-3.43,14.52-3.43s8.99,1.11,11.71,3.32c2.71,2.22,4.07,5.59,4.07,10.11v25.28h-7.23Zm-3.05-17.57l-4,.14c-3.01.09-5.25.63-6.72,1.63-1.47,1-2.21,2.51-2.21,4.55,0,2.92,1.67,4.38,5.02,4.38,2.4,0,4.31-.69,5.75-2.07,1.44-1.38,2.15-3.21,2.15-5.5v-3.12Z"/><line class="b" x1="534.83" x2="534.83" y2="237.89"/></svg>